<?xml version="1.0" encoding="UTF-8" standalone="no"?>
<svg
   xmlns:dc="http://purl.org/dc/elements/1.1/"
   xmlns:cc="http://creativecommons.org/ns#"
   xmlns:rdf="http://www.w3.org/1999/02/22-rdf-syntax-ns#"
   xmlns:svg="http://www.w3.org/2000/svg"
   xmlns="http://www.w3.org/2000/svg"
   id="penguin"
   version="1.1"
   viewBox="0 0 183.15382 221.46483"
   height="221.46483"
   width="183.15382">
  <defs
     id="defs2" />
  <path
     style="fill:#090807;stroke-width:0.26458335"
     d="m 129.4596,221.29944 c -2.07827,-0.43999 -4.40836,-1.31521 -5.73544,-2.15433 -3.314,-2.09545 -5.06177,-4.09607 -6.98273,-7.99293 l -1.19063,-2.4153 -4.10104,-0.16523 c -2.25557,-0.0909 -6.42276,-0.49999 -9.26042,-0.90915 -8.306139,-1.19765 -12.249309,-1.05291 -22.411739,0.82265 -2.64932,0.48895 -5.72422,0.97122 -6.83312,1.0717 l -2.01618,0.1827 -1.05467,1.66996 c -1.95775,3.09989 -4.90717,5.32112 -8.827,6.64769 -2.00418,0.67827 -2.38381,0.71662 -7.14375,0.72165 -4.58444,0.005 -5.2717,-0.0568 -7.80521,-0.69994 -3.34593,-0.84941 -6.74814,-2.12544 -9.93822,-3.72741 -5.06319,-2.5426 -8.4754,-3.3996 -18.63678,-4.68075 -7.7358199,-0.97534 -10.3040899,-1.54528 -12.7463799,-2.82867 -5.05807998,-2.65794 -6.0252,-7.51046 -3.25043,-16.30896 0.80955,-2.56697 0.82694,-4.32628 0.0928,-9.38976 -0.78143998,-5.39007 -0.64678998,-8.28901 0.49841,-10.73062 1.62714,-3.46912 4.02105,-5.21424 10.2461799,-7.4693 3.94702,-1.4298 4.78365,-2.0641 7.59365,-5.75712 1.34679,-1.77 2.92762,-3.74007 3.51295,-4.37792 l 1.06423,-1.15973 0.0169,-5.58714 c 0.0136,-4.52157 0.12442,-6.16745 0.5809,-8.62986 2.59168,-13.98038 11.22013,-30.6485 24.37445,-47.085704 6.38638,-7.9802 9.46636,-13.70823 11.24456,-20.91222 1.6055,-6.50432 1.9198,-11.04035 1.37497,-19.84375 -1.04052,-16.812605 -0.17679,-25.466499 3.32162,-33.28019 1.72165,-3.845329 5.19509,-8.1066745 8.56374,-10.5063315 3.43667,-2.448113 7.88889,-4.192079 13.33303,-5.22264097 2.56558,-0.485657 4.00756,-0.58127099722 8.75968,-0.58083299721507 C 101.32185,4.7753278e-4 102.03584,0.05805053 104.7342,0.69583753 c 5.43747,1.28520597 9.3309,3.24801697 12.75164,6.42853897 6.79833,6.3209195 10.3571,15.8832505 11.42238,30.6916745 0.14656,2.03729 0.26766,7.752285 0.26911,12.699995 0.003,10.25609 0.23659,12.55472 1.73,17.02361 2.08894,6.251 5.30826,11.18639 15.69878,24.06706 9.10618,11.288524 15.54354,22.639884 18.64748,32.882114 2.7221,8.98228 3.17015,17.71734 1.31164,25.57129 -1.08971,4.60505 -1.10787,4.33409 0.34139,5.09269 3.37239,1.76525 5.01397,4.57545 6.72669,11.51532 1.36057,5.51298 2.05293,7.04325 4.48913,9.92188 2.19646,2.59536 4.07807,5.64641 4.63917,7.5225 0.59972,2.00522 0.50356,4.5269 -0.23276,6.10354 -1.38368,2.96285 -3.24387,4.34433 -11.32646,8.41167 -9.74246,4.90261 -12.52896,6.82345 -16.58413,11.43208 -6.26037,7.11481 -13.67782,11.12145 -21.07579,11.38441 -1.60073,0.0569 -3.43802,-0.008 -4.08287,-0.14477 z"
     id="path870" />
  <path
     style="fill:#ffbb00;fill-opacity:1;stroke-width:0.26458335"
     d="m 60.139681,215.25228 c 3.46068,-1.10348 6.36767,-3.58236 7.92234,-6.75562 1.50435,-3.07056 1.63321,-6.03514 0.41765,-9.60902 -1.22911,-3.61375 -2.56338,-5.69151 -8.69489,-13.54 -5.36559,-6.86809 -6.30809,-8.32496 -10.11599,-15.6368 -5.42112,-10.40949 -9.21505,-15.32567 -13.36025,-17.31221 -1.68495,-0.80748 -2.23888,-0.94367 -3.82944,-0.94146 -3.40597,0.005 -5.267,1.2979 -9.52935,6.62163 -1.34995,1.68611 -3.034,3.57707 -3.74233,4.20213 -1.38313,1.22055 -3.93377,2.58322 -7.4527,3.98157 -6.9316299,2.7545 -8.3726299,5.48861 -7.3256099,13.89938 0.72433,5.81859 0.63984,8.42101 -0.38653,11.90625 -0.99655,3.38399 -1.33974,7.10069 -0.80859,8.75677 1.09844,3.42479 3.90698,4.47963 16.8022299,6.31068 8.99641,1.27744 9.92922,1.53965 19.18229,5.39224 3.84752,1.60194 7.45127,2.77061 9.92187,3.2176 0.72761,0.13164 3.10886,0.19929 5.29167,0.15033 3.11833,-0.0699 4.34135,-0.20782 5.70763,-0.64347 z"
     id="path874" />
  <path
     style="fill:#ffbb00;fill-opacity:1;stroke-width:0.26458335"
     d="m 136.05601,218.37697 c 5.1883,-0.83803 8.62725,-2.9671 16.40417,-10.15592 6.90624,-6.38399 8.10846,-7.22928 15.75366,-11.07644 7.1425,-3.59419 10.66999,-5.99838 11.68942,-7.96701 0.2484,-0.47967 0.41568,-1.43404 0.40756,-2.32511 -0.0185,-2.02742 -1.22529,-4.44139 -4.20461,-8.4104 -2.9181,-3.88744 -3.02815,-4.13454 -5.656,-12.7 -1.92865,-6.28639 -3.8663,-8.47449 -8.20047,-9.26042 -2.22861,-0.40412 -4.60688,0.024 -6.15821,1.10845 -5.18629,3.62561 -7.1079,4.61953 -10.45396,5.40717 -2.47825,0.58336 -5.24868,0.36264 -6.79064,-0.541 -2.58835,-1.51688 -5.08123,-5.41102 -5.85339,-9.14365 -0.2251,-1.08812 -0.45602,-2.02515 -0.51316,-2.08229 -0.57037,-0.57037 -3.40831,1.65479 -4.51162,3.53745 -1.42425,2.43031 -2.475,6.82766 -3.1597,13.22325 -1.14793,10.72253 -1.88872,15.01194 -3.88274,22.48232 -0.73695,2.76091 -1.56748,6.09466 -1.84563,7.40834 -0.67398,3.18322 -0.91086,7.77601 -0.50204,9.73402 0.47232,2.26218 1.93801,4.96202 3.65959,6.74109 3.55021,3.66875 7.99221,4.96111 13.81777,4.02015 z"
     id="path872" />
  <path
     style="fill:#ffffff;fill-opacity:1;stroke-width:0.26458335"
     d="m 109.13008,54.418646 c 0.70982,-0.8052 2.00031,-3.61649 2.46915,-5.37897 0.54144,-2.03538 0.60752,-5.82531 0.14033,-8.04863 -0.84662,-4.028975 -3.47624,-7.791515 -6.64361,-9.505855 -1.85497,-1.00401 -4.78461,-1.24275 -6.846429,-0.55792 -3.11857,1.03582 -5.97396,4.18645 -7.32232,8.0794 -0.85082,2.456485 -1.22596,7.344805 -0.60331,7.861565 0.40528,0.33636 3.93391,1.66343 4.42299,1.66343 0.16971,0 0.29871,-0.43605 0.29871,-1.00974 0,-2.95335 1.12637,-5.97117 2.76599,-7.410765 2.292569,-2.01291 4.680409,-1.2496 6.284119,2.008805 0.81311,1.65207 0.87116,1.94962 0.86278,4.4222 -0.008,2.31512 -0.10003,2.84775 -0.7276,4.20429 -0.39524,0.85433 -0.71862,1.69815 -0.71862,1.87517 0,0.27718 4.10227,2.13416 4.91993,2.22711 0.15935,0.0181 0.4734,-0.17543 0.69789,-0.43009 z"
     id="path884" />
  <path
     style="fill:#ffffff;fill-opacity:1;stroke-width:0.26458335"
     d="m 71.647621,54.188806 c 1.05364,-0.80365 1.08991,-0.97728 0.39002,-1.86705 -1.43862,-1.82891 -2.06221,-5.84716 -1.32963,-8.56776 0.405,-1.50407 1.78437,-2.89525 2.87067,-2.89525 1.87412,0 3.59651,2.74994 3.92488,6.2664 0.18514,1.98263 0.26091,2.00451 2.72537,0.78698 l 1.71979,-0.84963 0.0796,-1.83795 c 0.26633,-6.151065 -3.83919,-12.572345 -8.03447,-12.566405 -1.85192,0.003 -3.0264,0.50357 -4.39918,1.87636 -2.23517,2.23517 -3.38864,5.55871 -3.38864,9.763835 0,3.62726 0.7394,6.27892 2.56376,9.19427 1.00714,1.60941 1.51841,1.73309 2.87785,0.6962 z"
     id="path882" />
  <path
     style="fill:#ffbb00;fill-opacity:1;stroke-width:0.26458335"
     d="m 89.542471,78.403426 c 1.61805,-0.33552 5.09145,-1.96047 8.6182,-4.03183 1.3495,-0.79259 3.577629,-1.9182 4.951419,-2.50136 5.95427,-2.5275 9.37483,-6.09267 9.39019,-9.78717 0.008,-1.80425 -0.45578,-2.83985 -1.8822,-4.20739 -1.39073,-1.33333 -2.76225,-2.03931 -7.08726,-3.64814 -1.8077,-0.67243 -4.856159,-2.05092 -6.774349,-3.06331 -3.99989,-2.11107 -5.61623,-2.72009 -8.41916,-3.17225 -4.66432,-0.75243 -8.22387,0.59132 -13.82274,5.21819 -1.90486,1.57417 -4.5082,3.68345 -5.78518,4.68729 -3.45865,2.71885 -4.04162,4.44969 -2.52259,7.48955 0.92772,1.85654 2.60599,3.52014 5.91783,5.86613 1.29181,0.91507 3.10829,2.3081 4.03663,3.09563 3.88952,3.29959 6.17141,4.30733 9.80733,4.33117 1.19339,0.008 2.80073,-0.1166 3.57188,-0.27651 z"
     id="path878" />
  <path
     style="fill:#ffffff;fill-opacity:1;stroke-width:0.26458335"
     d="m 93.590381,198.79821 c 5.68174,-0.49376 10.773809,-1.91965 16.404169,-4.59353 3.1439,-1.49304 7.42841,-4.04573 8.10231,-4.82731 0.44195,-0.51255 2.02567,-5.97609 2.72632,-9.40529 0.22946,-1.12303 0.53859,-4.0996 0.68694,-6.61458 0.76382,-12.94851 2.39441,-18.80112 6.32563,-22.70433 0.81036,-0.80459 2.16048,-1.81662 3.00026,-2.24896 1.3359,-0.68776 1.56092,-0.91845 1.79908,-1.84441 0.91832,-3.57046 1.7414,-4.81654 3.86912,-5.85754 2.89859,-1.41814 7.70675,-0.73045 13.26175,1.89678 3.31657,1.56857 5.4781,2.90542 7.01874,4.34091 1.69888,1.58292 2.3095,2.83551 2.37204,4.86587 0.0499,1.61894 0.0571,1.63314 0.82724,1.63314 0.66529,0 0.81182,-0.13307 1.01971,-0.92604 0.66796,-2.54782 -0.49734,-5.47627 -3.14418,-7.90146 -1.69968,-1.55735 -6.07118,-4.3057 -8.69263,-5.46503 l -1.52875,-0.67608 0.22821,-1.77611 c 0.12552,-0.97686 0.2231,-3.68111 0.21686,-6.00944 -0.009,-3.47779 -0.12172,-4.70555 -0.62975,-6.87917 -1.7842,-7.6337 -5.55266,-15.10202 -10.92396,-21.64907 -2.03705,-2.482944 -4.23976,-4.676974 -4.69548,-4.676974 -0.77024,0 -0.0585,1.28573 1.86522,3.369384 5.32148,5.76394 9.4713,14.08736 10.69881,21.45897 0.58998,3.54302 0.4288,9.06214 -0.34713,11.88637 -0.60456,2.20048 -0.98576,2.78511 -1.67362,2.56679 -0.26575,-0.0844 -1.22149,-0.23586 -2.12386,-0.3367 -1.8798,-0.21008 -1.61271,0.2294 -2.74958,-4.52422 -1.8338,-7.66772 -3.81808,-12.69569 -9.56399,-24.23413 -4.14749,-8.328644 -7.01896,-14.918914 -10.10943,-23.201994 -1.94301,-5.20765 -5.32234,-15.49779 -5.32234,-16.20663 0,-0.16794 -0.13842,-0.44376 -0.3076,-0.61294 -0.23374,-0.23374 -0.70876,0.0677 -1.97837,1.25533 -2.03084,1.89976 -3.33023,2.68057 -6.84385,4.11251 -1.48529,0.60532 -4.057059,1.94578 -5.715039,2.97881 -4.96651,3.09444 -8.99211,4.31165 -12.88199,3.89508 -3.46186,-0.37073 -5.72859,-1.48432 -9.2618,-4.55008 -2.53133,-2.19643 -5.60031,-4.31489 -6.25091,-4.31489 -0.29343,0 -0.41711,0.25436 -0.4181,0.8599 -0.002,1.30625 -0.97352,6.78499 -1.73697,9.79677 -1.96115,7.73669 -4.93844,15.3661 -11.74197,30.089174 -1.91649,4.14734 -4.07957,9.12703 -4.80684,11.06596 -2.15427,5.74335 -3.96634,13.55151 -4.3397,18.69966 -0.0844,1.16417 -0.21471,2.51523 -0.28951,3.00235 -0.12746,0.83008 -0.16555,0.85893 -0.60676,0.45964 -0.7216,-0.65304 -2.54444,-4.53675 -3.23928,-6.90157 -0.55892,-1.9022 -0.62093,-2.62601 -0.61205,-7.14375 0.009,-4.53328 0.0784,-5.29997 0.70745,-7.80521 1.12664,-4.4869 2.39827,-7.69292 5.61452,-14.15521 1.66577,-3.34698 3.10794,-6.36739 3.20482,-6.71203 0.61009,-2.17029 -2.24528,2.10476 -5.64263,8.44814 -3.17741,5.93272 -5.65475,12.59055 -6.67973,17.95173 -0.48302,2.52642 -0.55686,3.64899 -0.45249,6.87917 0.16832,5.20955 1.01924,8.17009 3.39366,11.80734 1.96823,3.01503 4.50243,5.3391 9.19627,8.43372 9.84292,6.4894 15.10089,11.59384 17.87532,17.35339 1.00882,2.09425 1.08334,2.40493 1.08334,4.51618 0,2.00016 -0.0813,2.39016 -0.68997,3.31091 -0.85287,1.29007 -2.92159,2.45862 -4.73221,2.67306 -0.73708,0.0873 -1.40314,0.26065 -1.48014,0.38523 -0.077,0.12458 0.90875,1.62656 2.19054,3.33773 1.28179,1.71116 2.62546,3.54942 2.98592,4.08502 1.91301,2.84244 11.53797,6.73516 18.13003,7.33249 3.4399,0.31171 3.89891,0.31215 7.40833,0.007 z"
     id="path876" />
  <path
     style="fill:#090807;stroke-width:0.26458335"
     d="m 81.154971,70.788916 c -3.36139,-0.83117 -6.26379,-2.56846 -10.24311,-6.13124 -0.98749,-0.88412 -1.79543,-1.73352 -1.79543,-1.88756 0,-0.35876 0.40772,-0.0603 3.57594,2.61739 2.78618,2.35481 6.19829,4.28371 8.59489,4.85877 2.21037,0.53037 5.85159,0.41546 8.33437,-0.26303 2.58171,-0.70551 6.32217,-2.46358 10.868069,-5.10813 4.11924,-2.39634 5.51504,-3.11428 6.05473,-3.11428 0.62545,0 0.48328,0.50004 -0.19022,0.66908 -0.3287,0.0825 -2.38253,1.16188 -4.56407,2.39862 -2.181529,1.23674 -5.415829,2.96487 -7.187319,3.84029 -5.00065,2.47118 -9.29195,3.14772 -13.44785,2.12009 z"
     id="path880" />
</svg>
